Simulation
nRows=20
nColumns=15
endheader
time  TH_x TH_y TH_z SC_y  SC_z  SC_x  AC_y  AC_z  AC_x  GH_y  GH_z  GH_yy  EL_x  PS_y
0.75  0.000000  0.000000  0.000000  -33.50941894968909  4.274724327422036  20.858849063924684  59.973420306953486  -1.6857241655739967  -11.795826800228205  21.25506498197188  45.34127352580791  -17.853635577378476  19.960103996204793  0.000000
0.765  0.000000  0.000000  0.000000  -33.64960940125327  4.473575080082779  21.067351546827847  60.05432651629997  -1.3074517283836253  -11.666229818639758  21.31467855679162  45.85270703222563  -18.18192381963432  19.755249390349856  0.000000
0.78  0.000000  0.000000  0.000000  -33.78546708358961  4.6744232496777505  21.28356035224866  60.12376680674681  -0.9345999934025417  -11.540484906658712  21.381608601410147  46.349331389197346  -18.509540013125335  19.54873397805461  0.000000
0.7949999999999999  0.000000  0.000000  0.000000  -33.9189278087414  4.878288678588196  21.50791122132151  60.182314857376895  -0.5689989793231438  -11.417154063432399  21.456007782777196  46.831475486857464  -18.836869894807446  19.34144061846685  0.000000
0.8099999999999999  0.000000  0.000000  0.000000  -34.04994121392826  5.085352668841398  21.739467981443806  60.23126419588697  -0.2123032411416825  -11.294673708760362  21.537270938946126  47.298939278636766  -19.163491730857256  19.134153546486644  0.000000
0.825  0.000000  0.000000  0.000000  -34.180760382940555  5.295566200908784  21.97915149640208  60.272161784645895  0.13395769677252845  -11.171594113292274  21.62428313203723  47.75175396729215  -19.488670430728224  18.92734578563478  0.000000
0.84  0.000000  0.000000  0.000000  -34.31085032716226  5.508572713424045  22.225883327532916  60.30661378241061  0.4683105627180789  -11.046477297298745  21.715855717476202  48.18988258307829  -19.811781328764056  18.721401243128696  0.000000
0.855  0.000000  0.000000  0.000000  -34.44224209670714  5.724516245755063  22.480273274613  60.336271228553926  0.7892319259492081  -10.917742298767125  21.81067758610821  48.61351163987876  -20.13195816243155  18.51684245262428  0.000000
0.87  0.000000  0.000000  0.000000  -34.57446846084143  5.943042833619368  22.740912749712606  60.36287472039435  1.0953489299147088  -10.783780185674422  21.907430718096276  49.02277238719187  -20.448387859452684  18.314198764804733  0.000000
0.885  0.000000  0.000000  0.000000  -34.70973180777667  6.1641852777155535  23.008066907621437  60.38825318570211  1.38542424809713  -10.642974622112247  22.00473809535329  49.4180571663488  -20.76012356773241  18.114063741156915  0.000000
0.8999999999999999  0.000000  0.000000  0.000000  -34.84757546933468  6.387502455247514  23.27990047581175  60.41414140295109  1.65859432850559  -10.493802448878567  22.101251568229547  49.799553083551515  -21.066216773323546  17.917013136977438  0.000000
0.9149999999999999  0.000000  0.000000  0.000000  -34.99015228482744  6.612950697702257  23.55605532989159  60.442308550997794  1.9145044229430528  -10.334859623568553  22.195644054617762  50.167661619109204  -21.36566485416738  17.723599855488853  0.000000
0.9299999999999999  0.000000  0.000000  0.000000  -35.13719582339684  6.83986314372295  23.833798096319324  60.47421405499765  2.1534618441674804  -10.164660715288559  22.286876818085027  50.52257264456147  -21.657490524573014  17.53450366399187  0.000000
0.945  0.000000  0.000000  0.000000  -35.291475531474674  7.067994117396072  24.111573529951855  60.51128688636299  2.3765557565889956  -9.981898456981941  22.374437349668966  50.86487088590855  -21.94091768339414  17.350618593840515  0.000000
0.96  0.000000  0.000000  0.000000  -35.453510518223545  7.2962429343524615  24.385191342547007  60.55442108599875  2.585710521038059  -9.785245027229255  22.458829040855438  51.19525776438005  -22.215971129580513  17.172859618657423  0.000000
0.975  0.000000  0.000000  0.000000  -35.625609865972834  7.523800239309602  24.654191720168047  60.60394297420703  2.7819539251701606  -9.574810684581745  22.540673362447535  51.514429875812084  -22.482780461855384  17.001950386376386  0.000000
0.99  0.000000  0.000000  0.000000  -35.80500335483414  7.749441087766155  24.917626905314346  60.65926992708213  2.9659376269013578  -9.353030369058297  22.619808429597597  51.8223293725978  -22.740819333512587  16.83849449625355  0.000000
1.005  0.000000  0.000000  0.000000  -35.99031409720398  7.972872719904478  25.176700473278597  60.719149016657944  3.1385935871439874  -9.122905184193279  22.695504821074728  52.11861576892333  -22.988981917016847  16.683106653200326  0.000000
1.02  0.000000  0.000000  0.000000  -36.17773757909911  8.193164888607162  25.430200394678675  60.78198480371072  3.300904498543325  -8.887027334597109  22.767157287930626  52.40307779447621  -23.226558188559363  16.536470408702115  0.000000
1.035  0.000000  0.000000  0.000000  -36.36666628075971  8.410093807864952  25.679195485584618  60.84639156922747  3.453313753045754  -8.6478095595968  22.83403043285141  52.67597938724956  -23.45269640645914  16.399147340729538  0.000000
